{
    "asset" : {
        "generator" : "Khronos glTF Blender I/O v0.9.36",
        "version" : "2.0"
    },
    "scene" : 0,
    "scenes" : [
        {
            "name" : "Scene",
            "nodes" : [
                1
            ]
        }
    ],
    "nodes" : [
        {
            "mesh" : 0,
            "name" : "AnimatedCube"
        },
        {
            "children" : [
                0
            ],
            "name" : "Yup2Zup",
            "rotation" : [
                0.7071067690849304,
                0,
                0,
                0.7071067690849304
            ]
        }
    ],
    "animations" : [
        {
            "channels" : [
                {
                    "sampler" : 0,
                    "target" : {
                        "node" : 0,
                        "path" : "rotation"
                    }
                },
                {
                    "sampler" : 1,
                    "target" : {
                        "node" : 0,
                        "path" : "scale"
                    }
                },
                {
                    "sampler" : 2,
                    "target" : {
                        "node" : 0,
                        "path" : "translation"
                    }
                }
            ],
            "name" : "animation_AnimatedCube_AnimatedCube",
            "samplers" : [
                {
                    "input" : 4,
                    "interpolation" : "LINEAR",
                    "output" : 5
                },
                {
                    "input" : 4,
                    "interpolation" : "LINEAR",
                    "output" : 6
                },
                {
                    "input" : 7,
                    "interpolation" : "STEP",
                    "output" : 8
                }
            ]
        }
    ],
    "materials" : [
        {
            "name" : "AnimatedCube",
            "pbrMetallicRoughness" : {
                "baseColorTexture" : {
                    "index" : 0,
                    "texCoord" : 0
                },
                "metallicRoughnessTexture" : {
                    "index" : 1,
                    "texCoord" : 0
                }
            }
        }
    ],
    "meshes" : [
        {
            "name" : "AnimatedCube",
            "primitives" : [
                {
                    "attributes" : {
                        "POSITION" : 0,
                        "NORMAL" : 1,
                        "TEXCOORD_0" : 2
                    },
                    "indices" : 3,
                    "material" : 0
                }
            ]
        }
    ],
    "textures" : [
        {
            "source" : 0
        },
        {
            "source" : 1
        }
    ],
    "images" : [
        {
            "mimeType" : "image/png",
            "name" : "AnimatedCube_BaseColor",
            "uri" : "AnimatedCube_BaseColor.png"
        },
        {
            "mimeType" : "image/png",
            "name" : "AnimatedCube_MetallicRoughness",
            "uri" : "AnimatedCube_MetallicRoughness.png"
        }
    ],
    "accessors" : [
        {
            "bufferView" : 0,
            "componentType" : 5126,
            "count" : 36,
            "max" : [
                1,
                1.0000009536743164,
                1
            ],
            "min" : [
                -1,
                -1,
                -1
            ],
            "type" : "VEC3"
        },
        {
            "bufferView" : 1,
            "componentType" : 5126,
            "count" : 36,
            "type" : "VEC3"
        },
        {
            "bufferView" : 2,
            "componentType" : 5126,
            "count" : 36,
            "type" : "VEC2"
        },
        {
            "bufferView" : 3,
            "componentType" : 5123,
            "count" : 36,
            "type" : "SCALAR"
        },
        {
            "bufferView" : 4,
            "componentType" : 5126,
            "count" : 3,
            "max" : [
                2
            ],
            "min" : [
                0
            ],
            "type" : "SCALAR"
        },
        {
            "bufferView" : 5,
            "componentType" : 5126,
            "count" : 3,
            "type" : "VEC4"
        },
        {
            "bufferView" : 6,
            "componentType" : 5126,
            "count" : 3,
            "type" : "VEC3"
        },
        {
            "bufferView" : 7,
            "componentType" : 5126,
            "count" : 1,
            "max" : [
                1
            ],
            "min" : [
                1
            ],
            "type" : "SCALAR"
        },
        {
            "bufferView" : 8,
            "componentType" : 5126,
            "count" : 1,
            "type" : "VEC3"
        }
    ],
    "bufferViews" : [
        {
            "buffer" : 0,
            "byteLength" : 432,
            "byteOffset" : 0
        },
        {
            "buffer" : 0,
            "byteLength" : 432,
            "byteOffset" : 432
        },
        {
            "buffer" : 0,
            "byteLength" : 288,
            "byteOffset" : 864
        },
        {
            "buffer" : 0,
            "byteLength" : 72,
            "byteOffset" : 1152
        },
        {
            "buffer" : 0,
            "byteLength" : 12,
            "byteOffset" : 1224
        },
        {
            "buffer" : 0,
            "byteLength" : 48,
            "byteOffset" : 1236
        },
        {
            "buffer" : 0,
            "byteLength" : 36,
            "byteOffset" : 1284
        },
        {
            "buffer" : 0,
            "byteLength" : 4,
            "byteOffset" : 1320
        },
        {
            "buffer" : 0,
            "byteLength" : 12,
            "byteOffset" : 1324
        }
    ],
    "buffers" : [
        {
            "byteLength" : 1336,
            "uri" : "AnimatedCube.bin"
        }
    ]
}
