{
    "asset" : {
        "generator" : "Khronos glTF Blender I/O v0.9.36",
        "version" : "2.0"
    },
    "scene" : 0,
    "scenes" : [
        {
            "name" : "Scene",
            "nodes" : [
                2
            ]
        }
    ],
    "nodes" : [
        {
            "mesh" : 0,
            "name" : "Saturn_planet(atlas01)",
            "rotation" : [
                0,
                0.08715575188398361,
                -2.622475903990562e-06,
                0.9961947798728943
            ],
            "scale" : [
                0.08428080379962921,
                0.08428081125020981,
                0.08428080379962921
            ],
            "translation" : [
                -0.058454643934965134,
                -0.832503080368042,
                -2.3459177017211914
            ]
        },
        {
            "mesh" : 1,
            "name" : "Saturn_rings(atlas01)",
            "rotation" : [
                0,
                0.08715575188398361,
                0,
                0.9961947798728943
            ],
            "scale" : [
                0.08428080379962921,
                0.08428081125020981,
                0.08428080379962921
            ],
            "translation" : [
                -0.061547260731458664,
                -0.8363085985183716,
                -2.3461780548095703
            ]
        },
        {
            "children" : [
                0,
                1
            ],
            "name" : "Yup2Zup",
            "rotation" : [
                0.7071067690849304,
                0,
                0,
                0.7071067690849304
            ]
        }
    ],
    "animations" : [
        {
            "channels" : [
                {
                    "sampler" : 0,
                    "target" : {
                        "node" : 1,
                        "path" : "translation"
                    }
                },
                {
                    "sampler" : 1,
                    "target" : {
                        "node" : 1,
                        "path" : "rotation"
                    }
                }
            ],
            "name" : "Saturn_rings(atlas01)|Take 001|BaseLayer.000",
            "samplers" : [
                {
                    "input" : 8,
                    "interpolation" : "LINEAR",
                    "output" : 9
                },
                {
                    "input" : 8,
                    "interpolation" : "LINEAR",
                    "output" : 10
                }
            ]
        },
        {
            "channels" : [
                {
                    "sampler" : 0,
                    "target" : {
                        "node" : 0,
                        "path" : "translation"
                    }
                },
                {
                    "sampler" : 1,
                    "target" : {
                        "node" : 0,
                        "path" : "rotation"
                    }
                }
            ],
            "name" : "Saturn_planet(atlas01)|Take 001|BaseLayer.000",
            "samplers" : [
                {
                    "input" : 8,
                    "interpolation" : "LINEAR",
                    "output" : 11
                },
                {
                    "input" : 8,
                    "interpolation" : "LINEAR",
                    "output" : 12
                }
            ]
        }
    ],
    "materials" : [
        {
            "doubleSided" : true,
            "name" : "atlas01.000",
            "pbrMetallicRoughness" : {
                "baseColorTexture" : {
                    "index" : 0,
                    "texCoord" : 0
                },
                "metallicFactor" : 1,
                "roughnessFactor" : 0.858578622341156
            }
        }
    ],
    "meshes" : [
        {
            "name" : "Mesh.004",
            "primitives" : [
                {
                    "attributes" : {
                        "POSITION" : 0,
                        "NORMAL" : 1,
                        "TEXCOORD_0" : 2
                    },
                    "indices" : 3,
                    "material" : 0
                }
            ]
        },
        {
            "name" : "Mesh.003",
            "primitives" : [
                {
                    "attributes" : {
                        "POSITION" : 4,
                        "NORMAL" : 5,
                        "TEXCOORD_0" : 6
                    },
                    "indices" : 7,
                    "material" : 0
                }
            ]
        }
    ],
    "textures" : [
        {
            "source" : 0
        }
    ],
    "images" : [
        {
            "mimeType" : "image/png",
            "name" : "Image_0",
            "uri" : "Image_0.png"
        }
    ],
    "accessors" : [
        {
            "bufferView" : 0,
            "componentType" : 5126,
            "count" : 559,
            "max" : [
                14.703607559204102,
                14.703594207763672,
                14.772781372070312
            ],
            "min" : [
                -14.703607559204102,
                -14.703596115112305,
                -14.772781372070312
            ],
            "type" : "VEC3"
        },
        {
            "bufferView" : 1,
            "componentType" : 5126,
            "count" : 559,
            "type" : "VEC3"
        },
        {
            "bufferView" : 2,
            "componentType" : 5126,
            "count" : 559,
            "type" : "VEC2"
        },
        {
            "bufferView" : 3,
            "componentType" : 5123,
            "count" : 2880,
            "type" : "SCALAR"
        },
        {
            "bufferView" : 4,
            "componentType" : 5126,
            "count" : 15952,
            "max" : [
                37.264015197753906,
                37.26376724243164,
                0.29515576362609863
            ],
            "min" : [
                -37.26401138305664,
                -37.26377487182617,
                -0.29552578926086426
            ],
            "type" : "VEC3"
        },
        {
            "bufferView" : 5,
            "componentType" : 5126,
            "count" : 15952,
            "type" : "VEC3"
        },
        {
            "bufferView" : 6,
            "componentType" : 5126,
            "count" : 15952,
            "type" : "VEC2"
        },
        {
            "bufferView" : 7,
            "componentType" : 5123,
            "count" : 24000,
            "type" : "SCALAR"
        },
        {
            "bufferView" : 8,
            "componentType" : 5126,
            "count" : 201,
            "max" : [
                6.699999491373698
            ],
            "min" : [
                0.033333336313565574
            ],
            "type" : "SCALAR"
        },
        {
            "bufferView" : 9,
            "componentType" : 5126,
            "count" : 201,
            "type" : "VEC3"
        },
        {
            "bufferView" : 10,
            "componentType" : 5126,
            "count" : 201,
            "type" : "VEC4"
        },
        {
            "bufferView" : 11,
            "componentType" : 5126,
            "count" : 201,
            "type" : "VEC3"
        },
        {
            "bufferView" : 12,
            "componentType" : 5126,
            "count" : 201,
            "type" : "VEC4"
        }
    ],
    "bufferViews" : [
        {
            "buffer" : 0,
            "byteLength" : 6708,
            "byteOffset" : 0
        },
        {
            "buffer" : 0,
            "byteLength" : 6708,
            "byteOffset" : 6708
        },
        {
            "buffer" : 0,
            "byteLength" : 4472,
            "byteOffset" : 13416
        },
        {
            "buffer" : 0,
            "byteLength" : 5760,
            "byteOffset" : 17888
        },
        {
            "buffer" : 0,
            "byteLength" : 191424,
            "byteOffset" : 23648
        },
        {
            "buffer" : 0,
            "byteLength" : 191424,
            "byteOffset" : 215072
        },
        {
            "buffer" : 0,
            "byteLength" : 127616,
            "byteOffset" : 406496
        },
        {
            "buffer" : 0,
            "byteLength" : 48000,
            "byteOffset" : 534112
        },
        {
            "buffer" : 0,
            "byteLength" : 804,
            "byteOffset" : 582112
        },
        {
            "buffer" : 0,
            "byteLength" : 2412,
            "byteOffset" : 582916
        },
        {
            "buffer" : 0,
            "byteLength" : 3216,
            "byteOffset" : 585328
        },
        {
            "buffer" : 0,
            "byteLength" : 2412,
            "byteOffset" : 588544
        },
        {
            "buffer" : 0,
            "byteLength" : 3216,
            "byteOffset" : 590956
        }
    ],
    "buffers" : [
        {
            "byteLength" : 594172,
            "uri" : "saturn.bin"
        }
    ]
}
